<?xml version="1.0" standalone="no"?>
<!DOCTYPE svg PUBLIC "-//W3C//DTD SVG 20010904//EN"
 "http://www.w3.org/TR/2001/REC-SVG-20010904/DTD/svg10.dtd">
<svg version="1.0" xmlns="http://www.w3.org/2000/svg"
 width="213.000000pt" height="213.000000pt" viewBox="0 0 213.000000 213.000000"
 preserveAspectRatio="xMidYMid meet">
<metadata>
Created by potrace 1.11, written by Peter Selinger 2001-2013
</metadata>
<g transform="translate(0.000000,213.000000) scale(0.100000,-0.100000)"
fill="#000000" stroke="none">
<path d="M938 2120 c-68 -8 -218 -44 -247 -59 -9 -5 -41 -12 -71 -16 -30 -4
-72 -16 -92 -26 -48 -25 -58 -24 -113 7 -26 14 -54 23 -62 19 -9 -3 -26 4 -39
16 -13 12 -29 19 -36 16 -8 -2 -22 1 -33 9 -27 20 -48 17 -72 -8 -19 -21 -49
-125 -39 -135 6 -6 36 -11 69 -12 25 -1 27 -3 13 -16 -16 -16 -46 -10 -46 9
-1 30 -34 -65 -35 -104 -1 -25 0 -38 3 -30 7 22 33 50 42 45 8 -5 6 -48 -5
-87 -8 -32 -25 -28 -26 5 0 21 -1 21 -10 -2 -10 -25 4 -79 24 -93 6 -3 -12
-50 -41 -110 -268 -537 -59 -1171 473 -1433 296 -146 617 -149 915 -9 l96 45
75 -30 c79 -32 102 -32 160 0 13 7 34 12 47 10 12 -1 41 4 65 13 23 8 59 17
79 21 39 6 79 44 77 74 0 9 -5 4 -10 -11 -10 -25 -61 -58 -91 -58 -8 0 -35 -7
-60 -16 -44 -14 -51 -14 -120 6 -99 30 -165 59 -172 76 -3 8 -1 26 5 41 l10
26 30 -34 30 -34 -24 35 c-13 19 -37 56 -52 82 l-27 48 49 -5 c33 -3 26 0 -24
9 -39 8 -116 19 -171 24 -162 17 -243 65 -282 169 -25 68 -26 124 -1 147 10 9
25 14 34 10 11 -4 16 1 19 18 3 16 -11 41 -45 82 -27 33 -56 77 -64 98 -9 21
-17 37 -19 35 -9 -9 31 -85 68 -129 37 -44 38 -48 18 -48 -18 0 -21 -4 -17
-22 11 -40 -132 113 -145 156 -11 36 -10 40 11 57 13 11 32 19 42 19 10 0 27
9 37 20 10 11 31 19 48 19 16 0 62 3 102 6 42 2 82 0 93 -6 10 -5 30 -31 43
-57 13 -26 43 -74 65 -107 42 -62 56 -125 27 -125 -18 0 -86 121 -103 185
l-13 50 5 -53 4 -53 -32 3 c-29 3 -33 8 -42 46 -6 24 -14 40 -17 37 -8 -9 17
-79 43 -122 18 -29 19 -37 8 -44 -8 -5 -19 -9 -26 -9 -14 0 -73 80 -104 143
-28 59 -46 74 -24 20 15 -37 46 -91 82 -143 l17 -25 -22 19 c-18 16 -22 16
-27 4 -14 -36 23 -70 51 -47 22 18 133 7 184 -19 24 -12 44 -20 45 -19 6 14
-16 324 -25 360 -19 71 -21 52 -5 -38 8 -44 14 -106 15 -139 0 -51 -2 -57 -15
-46 -8 7 -38 52 -66 101 -34 58 -59 91 -73 94 -11 3 -52 3 -91 0 -38 -3 -84
-5 -101 -5 -18 0 -39 -8 -49 -20 -27 -30 -115 -26 -115 6 0 8 -7 14 -16 14 -8
0 -13 4 -10 9 4 5 0 11 -6 14 -10 4 -11 7 0 18 16 17 15 29 -2 29 -10 0 -16
13 -19 38 -3 28 -4 24 -5 -18 -1 -30 3 -74 7 -97 5 -23 5 -40 0 -38 -11 8 -94
127 -102 149 -4 10 -16 20 -27 23 -11 3 -20 11 -20 18 0 6 -9 20 -20 30 -11
10 -20 23 -20 30 0 6 -11 17 -25 23 -22 10 -24 15 -15 31 23 44 -1 123 -70
231 -16 25 -36 65 -44 88 -14 40 -14 44 4 62 11 11 22 32 25 47 4 16 8 38 11
50 6 31 53 83 89 99 16 7 24 13 17 14 -16 0 -184 -68 -196 -81 -14 -13 -26
-11 -26 4 0 20 204 98 270 103 30 3 72 6 93 8 20 2 35 0 31 -5 -3 -5 1 -9 8
-9 8 0 23 -7 34 -16 18 -14 18 -15 1 -10 -11 3 -31 9 -45 12 -25 4 -24 4 4 -9
33 -16 70 -59 98 -114 23 -45 20 -53 -15 -53 -69 0 -119 -100 -65 -129 30 -16
53 -6 35 15 -7 9 -8 14 -3 13 5 -1 18 -1 29 0 19 2 19 2 2 12 -12 7 -27 7 -48
0 -41 -14 -38 6 4 25 25 12 27 14 7 10 l-25 -5 24 20 c13 10 36 19 52 19 26 0
29 -3 29 -32 0 -18 11 -64 25 -103 31 -88 31 -118 0 -201 -14 -36 -25 -82 -25
-101 0 -23 -8 -42 -25 -58 -13 -14 -20 -25 -15 -25 18 0 50 54 50 85 0 18 12
64 26 101 30 79 28 129 -6 226 -24 69 -27 128 -5 128 14 0 35 29 35 48 0 5
-10 8 -21 8 -15 -1 -28 10 -41 34 -41 71 -121 134 -228 177 -23 9 -20 11 35
24 96 21 303 16 408 -9 337 -83 604 -324 714 -647 52 -153 66 -329 38 -486
-21 -120 -85 -299 -107 -299 -4 0 -8 22 -8 49 0 26 -7 88 -15 136 -16 90 -70
218 -172 412 -24 45 -62 122 -83 172 -52 120 -125 224 -201 288 -28 24 -31 25
-20 6 6 -12 17 -26 25 -30 32 -19 130 -155 164 -228 20 -44 68 -141 106 -215
154 -303 178 -378 190 -593 5 -97 5 -99 -21 -123 -24 -23 -89 -58 -138 -75
-17 -6 -17 -7 -3 -8 26 -1 137 59 159 87 11 14 19 40 19 61 l0 36 76 -76 c62
-62 79 -86 90 -125 7 -27 13 -39 13 -27 2 40 -19 77 -74 133 l-54 55 34 72
c159 332 132 729 -71 1041 -216 332 -612 518 -1006 472z m-704 -46 c14 -14 14
-18 1 -37 -8 -12 -15 -29 -15 -39 0 -12 -8 -18 -21 -18 -15 0 -19 5 -15 16 3
8 2 12 -4 9 -35 -21 -27 45 8 71 22 17 27 17 46 -2z m17 -57 c-10 -13 10 -51
23 -42 3 3 -3 -5 -14 -17 -16 -18 -22 -20 -32 -10 -11 11 -10 12 3 7 10 -4 20
-2 24 4 3 6 -2 11 -12 11 -14 0 -15 2 -4 9 10 7 10 10 1 13 -8 2 -10 12 -6 26
4 12 12 20 17 16 6 -4 7 -10 0 -17z m353 1 c-5 -8 -2 -9 10 -5 24 9 75 19 56
11 -8 -4 -37 -18 -65 -32 -35 -17 -46 -20 -36 -8 11 13 11 16 0 16 -9 1 -8 5
5 15 24 18 40 20 30 3z m310 -41 c15 -11 1 -12 -81 -9 -88 3 -107 0 -187 -27
-49 -17 -92 -29 -95 -26 -11 12 22 29 96 51 90 27 237 33 267 11z m-743 -14
c13 -16 12 -17 -3 -4 -17 13 -22 21 -14 21 2 0 10 -8 17 -17z m105 -31 c-17
-16 -18 -16 -5 5 7 12 15 20 18 17 3 -2 -3 -12 -13 -22z m-19 -36 c-11 -9 -14
-15 -7 -18 7 -2 2 -12 -11 -23 l-22 -20 12 23 c6 12 8 22 4 22 -4 0 1 7 11 15
11 8 22 15 25 15 3 0 -2 -7 -12 -14z m7 -58 c-4 -27 -12 -62 -14 -65 -2 -2 -3
-6 -4 -10 -1 -5 -8 -18 -17 -31 -15 -20 -17 -21 -23 -6 -5 12 2 25 21 42 16
13 21 21 11 18 -21 -6 -16 28 8 55 21 24 22 24 18 -3z m184 -105 c-10 -2 -26
-2 -35 0 -10 3 -2 5 17 5 19 0 27 -2 18 -5z m-193 -32 c-9 -8 -36 -10 -30 -2
2 4 11 8 20 8 8 0 13 -3 10 -6z m160 -21 c-10 -11 -20 -18 -23 -15 -7 6 18 35
31 35 5 0 2 -9 -8 -20z m106 -22 l29 -31 -33 -21 c-17 -11 -36 -20 -40 -21 -5
0 -15 -11 -22 -25 -8 -14 -14 -20 -15 -14 0 6 11 28 25 49 34 49 26 55 -14 10
-37 -43 -41 -35 -6 11 33 43 32 54 -1 23 -26 -23 -26 -23 -15 -2 10 19 48 53
60 53 2 0 17 -14 32 -32z m-185 6 c45 -21 55 -58 25 -87 l-22 -22 6 30 c6 30
6 30 -7 6 -16 -29 -45 -43 -35 -17 5 14 3 16 -12 11 -11 -3 -22 -1 -26 5 -3 5
-1 10 6 10 9 0 9 3 0 14 -10 12 -9 20 4 40 20 31 18 30 61 10z m661 -40 c-3
-3 -12 -4 -19 -1 -8 3 -5 6 6 6 11 1 17 -2 13 -5z m-427 -37 c0 -22 -14 -38
-70 -81 l-25 -20 24 27 c22 24 21 32 -2 28 -5 -1 4 14 19 34 30 40 54 46 54
12z m-317 -29 c13 -2 23 -11 25 -23 2 -11 16 -31 30 -45 15 -14 37 -37 49 -51
l22 -25 -52 3 c-29 2 -71 6 -94 9 -35 5 -43 4 -43 -9 0 -9 9 -19 20 -22 11 -3
20 -13 20 -21 0 -8 15 -21 33 -29 28 -12 30 -14 12 -20 -54 -18 -75 -28 -75
-36 0 -12 38 -21 52 -13 7 4 5 -2 -5 -14 -21 -23 -14 -47 12 -37 13 5 14 4 4
-6 -7 -7 -13 -19 -13 -27 0 -11 14 -13 73 -7 l72 7 -28 -22 c-84 -67 -95 -233
-32 -470 14 -50 22 -102 19 -118 -4 -19 5 -52 30 -108 33 -75 59 -164 51 -172
-7 -7 -96 81 -144 142 -149 190 -215 381 -215 621 0 145 17 242 66 364 38 96
82 172 86 149 2 -9 13 -18 25 -20z m333 -42 c-4 -19 -11 -38 -16 -41 -6 -4 -7
1 -3 11 4 12 3 15 -5 10 -9 -5 -9 0 -2 20 22 57 37 57 26 0z m-206 -16 c5 8 9
-3 11 -28 3 -27 1 -38 -7 -35 -13 5 -24 38 -23 68 1 19 2 19 6 1 4 -14 7 -15
13 -6z m242 -27 c-5 -10 -7 -25 -5 -33 4 -13 3 -13 -6 -1 -9 14 2 51 15 51 2
0 1 -8 -4 -17z m-158 -68 c5 -22 4 -26 -4 -15 -5 8 -10 24 -10 34 0 26 6 18
14 -19z m228 -39 c-6 -48 -12 -46 -12 5 0 22 4 38 8 35 4 -3 6 -21 4 -40z m15
-18 c-3 -7 -5 -2 -5 12 0 14 2 19 5 13 2 -7 2 -19 0 -25z m-91 -26 c-4 -3 -14
2 -24 12 -16 18 -16 18 6 6 13 -6 21 -14 18 -18z m121 -64 c-3 -8 -6 -5 -6 6
-1 11 2 17 5 13 3 -3 4 -12 1 -19z m20 -45 c-3 -10 -5 -2 -5 17 0 19 2 27 5
18 2 -10 2 -26 0 -35z m62 -56 c0 -21 -1 -21 -9 -2 -12 28 -12 37 0 30 6 -3
10 -16 9 -28z m51 -64 c0 -32 -5 -28 -14 10 -4 19 -3 26 4 22 5 -3 10 -18 10
-32z m47 -55 c-3 -8 -6 -5 -6 6 -1 11 2 17 5 13 3 -3 4 -12 1 -19z m602 -852
c-2 -2 -15 -9 -29 -16 -23 -12 -24 -12 -11 3 7 10 20 17 29 17 8 0 13 -2 11
-4z"/>
<path d="M798 1923 c7 -3 16 -2 19 1 4 3 -2 6 -13 5 -11 0 -14 -3 -6 -6z"/>
<path d="M1259 1681 c-97 -65 -127 -105 -111 -151 7 -18 7 -32 1 -35 -16 -11
-10 -41 14 -62 35 -34 137 -74 200 -80 54 -6 59 -8 77 -42 11 -20 19 -31 20
-26 0 6 -9 25 -20 43 -17 27 -25 32 -60 32 -46 0 -156 39 -200 71 -42 32 -39
55 8 64 55 10 72 30 71 84 -1 25 -3 38 -6 29 -5 -21 -19 -23 -27 -5 -3 6 -3 2
0 -10 6 -24 -4 -30 -24 -13 -9 7 -9 7 -2 -2 16 -19 11 -31 -11 -25 -15 4 -18
2 -10 -7 6 -7 8 -15 6 -18 -3 -3 6 -3 21 0 19 3 25 1 20 -7 -13 -21 -52 -12
-65 15 -16 35 2 61 81 119 65 49 75 52 102 32 10 -8 30 -11 45 -9 25 5 25 5
-9 18 -53 19 -72 17 -121 -15z"/>
<path d="M725 1681 c-22 -10 -49 -29 -60 -41 -19 -23 -18 -23 28 4 26 15 70
30 97 33 28 3 50 10 50 14 0 16 -74 9 -115 -10z"/>
<path d="M729 1629 l-24 -20 25 12 c14 7 41 16 60 20 l35 7 -36 1 c-24 1 -45
-6 -60 -20z"/>
<path d="M726 1599 c-14 -11 -26 -25 -26 -31 0 -7 5 -6 15 2 8 6 19 9 26 5 8
-6 7 -10 -2 -16 -10 -6 -5 -9 14 -9 20 0 26 4 20 13 -14 23 -13 39 2 27 11 -9
14 -7 12 9 -2 27 -27 27 -61 0z"/>
<path d="M954 1455 c-18 -13 -18 -14 4 -8 12 3 25 9 28 14 8 14 -10 11 -32 -6z"/>
<path d="M968 1380 c-15 -4 -37 -15 -49 -24 l-22 -15 28 -11 c43 -16 78 -9 92
20 9 19 9 26 0 32 -14 9 -13 9 -49 -2z"/>
<path d="M1467 1250 c3 -14 12 -41 20 -60 11 -30 12 -31 8 -6 -4 16 -13 43
-20 60 -11 23 -13 25 -8 6z"/>
<path d="M2112 290 c0 -19 2 -27 5 -17 2 9 2 25 0 35 -3 9 -5 1 -5 -18z"/>
</g>
</svg>
